<svg xmlns="http://www.w3.org/2000/svg" version="1.1" xmlns:xlink="http://www.w3.org/1999/xlink" xmlns:svgjs="http://svgjs.dev/svgjs" width="1000" height="1000" viewBox="0 0 1000 1000"><g transform="matrix(1,0,0,1,-0.14221556886212738,-0.14221556886229791)"><svg viewBox="0 0 334 334" data-background-color="#ffffff" preserveAspectRatio="xMidYMid meet" height="1000" width="1000" xmlns="http://www.w3.org/2000/svg" xmlns:xlink="http://www.w3.org/1999/xlink"><g id="tight-bounds" transform="matrix(1,0,0,1,0.04749999999998522,0.04750000000001364)"><svg viewBox="0 0 333.90454557049503 333.90454557049503" height="333.90454557049503" width="333.90454557049503"><g><svg></svg></g><g><svg viewBox="0 0 333.90454557049503 333.90454557049503" height="333.90454557049503" width="333.90454557049503"><g><path d="M0 166.952c0-92.205 74.747-166.952 166.952-166.952 92.205 0 166.952 74.747 166.953 166.952 0 92.205-74.747 166.952-166.953 166.953-92.205 0-166.952-74.747-166.952-166.953zM166.952 316.63c82.665 0 149.677-67.013 149.678-149.678 0-82.665-67.013-149.677-149.678-149.677-82.665 0-149.677 67.013-149.677 149.677 0 82.665 67.013 149.677 149.677 149.678z" data-fill-palette-color="tertiary" fill="#ee3e38" stroke="transparent"></path><ellipse rx="160.27418187383762" ry="160.27418187383762" cx="166.95227278524752" cy="166.95227278524752" fill="#ee3e38" stroke="transparent" stroke-width="0" fill-opacity="1" data-fill-palette-color="tertiary"></ellipse></g><g transform="matrix(1,0,0,1,86.4287452056877,71.17305217166896)"><svg viewBox="0 0 161.04705515911962 191.55844122715712" height="191.55844122715712" width="161.04705515911962"><g><svg viewBox="0 0 161.04705515911962 191.55844122715712" height="191.55844122715712" width="161.04705515911962"><g><svg viewBox="0 0 161.04705515911962 191.55844122715712" height="191.55844122715712" width="161.04705515911962"><g><svg viewBox="0 0 161.04705515911962 191.55844122715712" height="191.55844122715712" width="161.04705515911962"><g><svg viewBox="0 0 161.04705515911962 191.55844122715712" height="191.55844122715712" width="161.04705515911962"><g><svg viewBox="0 0 161.04705515911962 191.55844122715712" height="191.55844122715712" width="161.04705515911962"><g transform="matrix(1,0,0,1,0,0)"><svg width="161.04705515911962" viewBox="2.2 -35.5 30.349999999999998 36.1" height="191.55844122715712" data-palette-color="#ffffff"><path d="M3.15 0.2L3.15 0.2 2.2 0.2Q2.4-2.05 4.85-13.03 7.3-24 7.9-29.45L7.9-29.45Q7.9-30.25 7.38-31.38 6.85-32.5 6.3-33.2L6.3-33.2 5.8-33.9 5.95-34.65Q8.75-35.5 15.6-35.5L15.6-35.5Q16.25-34.3 16.25-32.08 16.25-29.85 13.75-19.55L13.75-19.55 14-19.55Q18.45-19.55 20.38-22.93 22.3-26.3 23.25-34.3L23.25-34.3Q26.8-35.5 30.7-35.5L30.7-35.5Q30.8-35.15 30.78-33.8 30.75-32.45 30.25-30.33 29.75-28.2 28.78-25.85 27.8-23.5 25.93-21.43 24.05-19.35 21.6-18.1L21.6-18.1Q24.5-8.2 26.6-5.2L26.6-5.2Q27.5-3.95 28-3.95L28-3.95Q28.9-3.95 30.8-4.85L30.8-4.85 31.4-5.15 32.55-3.3Q30.7-1.6 28.28-0.5 25.85 0.6 23.7 0.6 21.55 0.6 20.33-1.1 19.1-2.8 18.28-5.33 17.45-7.85 16.55-11.3 15.65-14.75 15.35-16.5L15.35-16.5Q14.9-16.45 13-16.45L13-16.45Q10.05-3.95 10.05-0.8L10.05-0.8Q8.1 0.2 3.15 0.2Z" opacity="1" transform="matrix(1,0,0,1,0,0)" fill="#ffffff" class="undefined-text-0" data-fill-palette-color="quaternary" id="text-0"></path></svg></g></svg></g></svg></g></svg></g><g></g></svg></g></svg></g></svg></g></svg></g><defs></defs></svg><rect width="333.90454557049503" height="333.90454557049503" fill="none" stroke="none" visibility="hidden"></rect></g></svg></g></svg>